<svg width="394" height="212" viewBox="0 0 394 212" fill="none" xmlns="http://www.w3.org/2000/svg">
<path d="M33.999 0.504883C34.0016 0.548645 34.0074 0.597188 34.0098 0.650391C34.0256 1.01003 34.0326 1.54504 34.0322 2.24805C34.0315 3.65221 33.9994 5.70287 33.9404 8.3125C33.8224 13.5311 33.599 20.9717 33.3154 29.917C32.7484 47.806 31.9404 71.7086 31.2549 95.8691C30.5694 120.029 30.0062 144.454 29.9268 163.386C29.8871 172.851 29.9687 180.95 30.2168 186.959C30.3408 189.962 30.507 192.452 30.7217 194.332C30.829 195.272 30.9487 196.068 31.084 196.703C31.2165 197.326 31.3724 197.839 31.5693 198.184C31.7226 198.452 31.9959 198.636 32.2715 198.771C32.5603 198.912 32.9254 199.033 33.3506 199.142C34.2029 199.359 35.3679 199.538 36.8115 199.686C39.7031 199.981 43.7828 200.154 48.8701 200.222C59.0486 200.357 73.3097 200.072 90.2773 199.483C124.215 198.306 169.01 195.915 213.697 193.251C258.385 190.587 302.969 187.648 336.485 185.376C353.243 184.24 367.235 183.271 377.089 182.586C382.016 182.243 385.909 181.971 388.596 181.785C389.939 181.692 390.981 181.621 391.7 181.572C392.06 181.548 392.338 181.53 392.532 181.518C392.541 181.517 392.549 181.516 392.558 181.516C392.597 181.691 392.637 181.949 392.672 182.294C392.749 183.066 392.799 184.185 392.826 185.548C392.881 188.27 392.845 191.922 392.772 195.632C392.646 202.101 392.409 208.771 392.351 210.886C392.293 210.881 392.232 210.876 392.168 210.872C391.553 210.832 390.577 210.797 389.271 210.765C386.654 210.701 382.682 210.651 377.549 210.613C367.282 210.538 352.357 210.51 334.31 210.516C298.214 210.527 249.621 210.67 200.797 210.822C151.972 210.975 102.916 211.137 65.8936 211.185C47.3822 211.209 31.8802 211.204 20.9199 211.156C15.4395 211.132 11.0957 211.098 8.08008 211.05C6.57227 211.026 5.3993 210.998 4.58301 210.968C4.17418 210.953 3.85862 210.937 3.6377 210.921C3.58827 210.917 3.54486 210.912 3.50684 210.908C3.48302 210.826 3.45445 210.714 3.42578 210.567C3.34712 210.164 3.26787 209.569 3.18848 208.784C3.03003 207.219 2.87673 204.949 2.73047 202.07C2.43806 196.316 2.17319 188.155 1.93555 178.39C1.46029 158.859 1.09653 132.922 0.854492 106.995C0.612462 81.0691 0.491415 55.156 0.5 35.6748C0.504293 25.934 0.541167 17.8025 0.611328 12.082C0.646416 9.22125 0.690386 6.96591 0.742188 5.41504C0.76811 4.63899 0.795682 4.04467 0.825195 3.64062C0.834928 3.50742 0.847133 3.39879 0.856445 3.31348C0.917763 3.29757 0.991585 3.27754 1.08008 3.25879C1.35919 3.19963 1.74653 3.13311 2.23145 3.06152C3.19943 2.91864 4.52899 2.75788 6.10352 2.58789C9.25137 2.24805 13.3594 1.87369 17.4697 1.53711C21.5798 1.20056 25.6889 0.901408 28.8379 0.711914C30.4129 0.617134 31.7453 0.550582 32.7158 0.519531C33.2016 0.503992 33.5921 0.497487 33.875 0.500977C33.9196 0.501528 33.9609 0.503877 33.999 0.504883Z" fill="#F1D390" stroke="#CABAA0"/>
</svg>
